<?xml version="1.0" encoding="utf-8"?>
<!-- Generator: Adobe Illustrator 27.0.0, SVG Export Plug-In . SVG Version: 6.00 Build 0)  -->
<svg version="1.1" id="Capa_1" xmlns="http://www.w3.org/2000/svg" xmlns:xlink="http://www.w3.org/1999/xlink" x="0px" y="0px"
	 viewBox="0 0 16 16" style="enable-background:new 0 0 16 16;" xml:space="preserve">
<style type="text/css">
	.st0{fill:none;stroke:#000000;stroke-width:0.01;stroke-miterlimit:10;}
	.st1{fill:#54C0E8;}
	.st2{fill:#00609C;}
</style>
<rect x="0" y="0" class="st0" width="16" height="16"/>
<g>
	<path class="st1" d="M0.6,8.27C0.65,7.4,0.95,6.65,1.5,6.02c0.47-0.53,1.13-0.78,1.78-0.91C3.93,4.98,4.69,4.8,5.35,4.82
		c0.2,0.01,0.41,0.06,0.57,0.2C6.31,5.34,6.34,5.94,6.2,6.41C5.9,7.45,4.98,7.25,4.16,7.4C3.8,7.46,3.09,7.6,3.29,8.18
		c0.19,0.55,0.93,0.46,1.35,0.4C5.19,8.51,6.1,8.04,6.4,8.8c0.22,0.56,0.23,1.45-0.23,1.87c-0.62,0.56-1.77,0.59-2.55,0.58
		c-0.93-0.01-1.89-0.3-2.5-1.09C0.69,9.61,0.56,8.97,0.6,8.27z"/>
	<path class="st2" d="M7.4,4.73c0.77,0.01,1.33,0.73,1.32,1.6C8.7,7.1,8.72,7.87,8.75,8.64c0.01,0.39,0.02,0.79,0.03,1.18
		c0.01,0.31,0.09,0.76-0.09,1.03c-0.07,0.11-0.18,0.19-0.3,0.25c-0.52,0.26-1.35,0.27-1.71-0.29C6.42,10.38,6.51,9.8,6.53,9.32
		c0.03-0.84,0.06-1.67,0.09-2.51c0.01-0.17-0.08-0.24-0.24-0.2C6.3,6.63,6.23,6.67,6.15,6.68C6.03,6.69,5.9,6.62,5.82,6.52
		C5.6,6.25,5.3,5.62,5.58,5.3c0.07-0.09,0.19-0.13,0.29-0.16C6.35,4.97,6.89,4.72,7.4,4.73z"/>
	<g>
		<path class="st1" d="M15.4,9.27c-0.02-0.6-0.21-1.13-0.58-1.58c-0.42-0.5-0.96-0.71-1.59-0.7c-0.14,0-0.18-0.06-0.15-0.2
			c0.03-0.14,0.17-0.27,0.34-0.29c0.35-0.04,0.7-0.04,1.05,0.02c0.16,0.02,0.33-0.01,0.44-0.18c0.24-0.37,0.38-1.18-0.1-1.42
			c-0.17-0.09-0.37-0.09-0.55-0.09c-0.56-0.01-1.12-0.02-1.67-0.03c-0.35-0.01-0.83,0.06-1.02,0.42c-0.08,0.16-0.08,0.35-0.08,0.53
			c0.01,0.51,0,1.01,0.01,1.52c0.01,0.39,0.01,0.9,0.38,1.12c0.35,0.2,0.73-0.08,1.09,0.01c0.19,0.05,0.37,0.25,0.33,0.46
			c-0.03,0.17-0.18,0.28-0.33,0.32c-0.15,0.03-0.31,0-0.47-0.04c-0.15-0.04-0.31-0.08-0.47-0.07c-0.3,0.03-0.57,0.27-0.61,0.59
			c-0.03,0.19,0.01,0.38,0.08,0.56c0.27,0.7,0.83,0.95,1.49,1.03c0.74,0.09,1.51-0.09,2.01-0.69C15.32,10.19,15.42,9.75,15.4,9.27z"
			/>
	</g>
	<path class="st1" d="M12.05,10.86c0.04-0.04,0.06-0.09,0.08-0.14c0.13-0.35,0.06-0.79-0.19-1.06c-0.43-0.46-0.83-0.13-1.31-0.05
		c-0.03,0.01-0.06,0.01-0.09,0c-0.07-0.02-0.08-0.12-0.05-0.18C10.54,9.3,10.62,9.2,10.7,9.1c0.4-0.52,0.8-1.03,1.09-1.63
		c0.29-0.58,0.34-1.43-0.04-1.98c-0.41-0.59-1.28-0.76-1.92-0.73C9.34,4.78,8.84,4.99,8.5,5.37C8.12,5.79,7.96,6.38,7.92,6.95
		C7.88,7.51,9.03,7.36,9.29,7.24c0.3-0.14,0.2-0.43,0.33-0.69c0.05-0.11,0.15-0.2,0.26-0.2c0.12-0.01,0.24,0.08,0.3,0.2
		c0.02,0.05,0.04,0.1,0.04,0.15c0,0.05-0.03,0.1-0.05,0.14C9.94,7.28,9.65,7.69,9.37,8.1c-0.2,0.29-0.4,0.57-0.61,0.86
		C8.55,9.28,8.3,9.57,8.17,9.94c-0.08,0.21-0.14,0.43-0.12,0.65c0.02,0.16,0.08,0.32,0.19,0.43c0.22,0.22,0.59,0.23,0.88,0.24
		c0.36,0.01,0.72-0.01,1.08-0.02c0.28-0.01,0.55-0.05,0.82-0.08c0.28-0.03,0.58-0.06,0.84-0.17C11.93,10.96,12,10.91,12.05,10.86z"
		/>
</g>
</svg>
